<?xml version="1.0" encoding="UTF-8" standalone="no"?>
<!-- Created with Inkscape (http://www.inkscape.org/) -->

<svg
   xmlns:dc="http://purl.org/dc/elements/1.1/"
   xmlns:cc="http://creativecommons.org/ns#"
   xmlns:rdf="http://www.w3.org/1999/02/22-rdf-syntax-ns#"
   xmlns:svg="http://www.w3.org/2000/svg"
   xmlns="http://www.w3.org/2000/svg"
   xmlns:sodipodi="http://sodipodi.sourceforge.net/DTD/sodipodi-0.dtd"
   xmlns:inkscape="http://www.inkscape.org/namespaces/inkscape"
   width="156.54349mm"
   height="61.457787mm"
   viewBox="0 0 554.68165 217.76381"
   id="svg2"
   version="1.1"
   inkscape:version="0.91 r13725"
   sodipodi:docname="logo.svg">
  <defs
     id="defs4" />
  <sodipodi:namedview
     id="base"
     pagecolor="#ffffff"
     bordercolor="#666666"
     borderopacity="1.0"
     inkscape:pageopacity="0.0"
     inkscape:pageshadow="2"
     inkscape:zoom="0.98994949"
     inkscape:cx="209.10632"
     inkscape:cy="123.14688"
     inkscape:document-units="px"
     inkscape:current-layer="layer1"
     showgrid="false"
     inkscape:window-width="1366"
     inkscape:window-height="707"
     inkscape:window-x="0"
     inkscape:window-y="0"
     inkscape:window-maximized="1"
     fit-margin-top="0"
     fit-margin-left="0"
     fit-margin-right="0"
     fit-margin-bottom="0"
     showguides="false" />
  <metadata
     id="metadata7">
    <rdf:RDF>
      <cc:Work
         rdf:about="">
        <dc:format>image/svg+xml</dc:format>
        <dc:type
           rdf:resource="http://purl.org/dc/dcmitype/StillImage" />
        <dc:title></dc:title>
      </cc:Work>
    </rdf:RDF>
  </metadata>
  <g
     inkscape:label="Layer 1"
     inkscape:groupmode="layer"
     id="layer1"
     transform="translate(-112.27083,-382.02828)">
    <path
       style="fill:#f44336;fill-opacity:1;stroke:#f44336;stroke-width:0.32820949;stroke-opacity:1"
       d="m 182.42123,595.67309 c -4.30789,-2.19305 -8.30425,-5.28198 -11.0213,-8.51871 -2.08923,-2.48883 -4.45851,-7.02117 -5.31872,-10.17449 -0.57523,-2.10868 -1.04324,-9.71844 -0.68538,-11.14426 l 0.21616,-0.86126 1.38539,0.85152 c 3.15706,1.94044 9.49374,4.0975 12.03706,4.0975 l 0.88532,0 0.43185,-4.60321 c 0.23753,-2.53177 0.35172,-4.68337 0.25375,-4.78133 -0.098,-0.098 -2.00196,0.0165 -4.2311,0.25444 -5.41983,0.57842 -25.61012,0.58726 -29.65332,0.013 -7.10173,-1.0087 -8.00788,-1.29479 -10.4741,-3.30681 -9.38453,-7.65627 -16.18795,-16.66345 -20.18324,-26.72099 -1.29695,-3.2649 -2.89304,-9.91926 -3.30184,-13.76596 -2.23197,-21.00209 6.97692,-45.27609 27.47819,-72.43068 12.32222,-16.32118 29.49205,-34.24377 48.0999,-50.20872 5.69521,-4.88631 14.70299,-12.17311 15.05757,-12.18076 0.12345,-0.003 -0.28311,1.5023 -0.90345,3.34435 -1.12334,3.33568 -1.14599,3.52455 -5.60795,46.77174 l -4.48006,43.42253 1.06846,4.51101 c 5.57406,23.53357 18.43751,42.61867 37.10405,55.05014 4.9187,3.27573 10.02473,6.01865 14.70921,7.90165 l 3.4513,1.38732 -4.16313,1.35441 c -18.51202,6.0226 -39.7978,11.11928 -55.67998,13.33202 -2.07593,0.28922 -4.08736,0.58765 -4.46985,0.66316 -0.6302,0.12441 -0.73165,0.48413 -1.0814,3.8342 -0.21227,2.0333 -0.4734,4.34766 -0.58029,5.14304 l -0.19434,1.44614 3.44636,-0.22282 c 9.18914,-0.59409 18.70433,-3.40079 29.02007,-8.56005 l 5.29926,-2.65034 -0.82923,1.64479 c -1.22406,2.42793 -4.82918,8.77034 -6.90483,12.14749 -9.45212,15.37895 -18.19993,24.12976 -24.67207,24.6806 -1.70885,0.14546 -2.05506,0.0373 -5.50832,-1.72067 z M 193.92739,433.6779 c 1.58281,-15.36499 2.82307,-27.99111 2.75615,-28.05803 -0.19459,-0.19458 -2.76191,11.72815 -3.64713,16.93745 -1.57704,9.28029 -2.40125,17.64821 -2.53774,25.76444 -0.12111,7.2012 0.0139,13.29248 0.29457,13.29248 0.14098,0 1.55135,-12.57135 3.13415,-27.93634 z"
       id="path3401"
       inkscape:connector-curvature="0"
       inkscape:export-filename="/home/dsoni/dhow.svg"
       inkscape:export-xdpi="90"
       inkscape:export-ydpi="90" />
    <text
       xml:space="preserve"
       style="font-style:normal;font-weight:normal;font-size:40px;line-height:125%;font-family:sans-serif;letter-spacing:0px;word-spacing:0px;fill:#4db6ac;fill-opacity:1;stroke:#4db6ac;stroke-width:1px;stroke-linecap:butt;stroke-linejoin:miter;stroke-opacity:1;"
       x="404.06104"
       y="519.00165"
       id="text3346"
       sodipodi:linespacing="125%"><tspan
         sodipodi:role="line"
         id="tspan3348"
         x="404.06104"
         y="519.00165" /></text>
    <text
       xml:space="preserve"
       style="font-style:normal;font-weight:normal;font-size:40px;line-height:125%;font-family:sans-serif;letter-spacing:0px;word-spacing:0px;fill:#4db6ac;fill-opacity:1;stroke:#4db6ac;stroke-width:1px;stroke-linecap:butt;stroke-linejoin:miter;stroke-opacity:1;"
       x="450.52802"
       y="201.81377"
       id="text3350"
       sodipodi:linespacing="125%"><tspan
         sodipodi:role="line"
         id="tspan3352"
         x="450.52802"
         y="201.81377" /></text>
    <flowRoot
       xml:space="preserve"
       id="flowRoot3357"
       style="font-style:normal;font-weight:normal;font-size:40px;line-height:125%;font-family:sans-serif;letter-spacing:0px;word-spacing:0px;fill:#000000;fill-opacity:1;stroke:none;stroke-width:1px;stroke-linecap:butt;stroke-linejoin:miter;stroke-opacity:1"
       transform="translate(112.27083,382.02828)"><flowRegion
         id="flowRegion3359"><rect
           id="rect3361"
           width="388.57144"
           height="81.428574"
           x="140"
           y="9.1923819" /></flowRegion><flowPara
         id="flowPara3363"
         style="font-style:normal;font-variant:normal;font-weight:normal;font-stretch:normal;font-family:'El Messiri';-inkscape-font-specification:'El Messiri'" /></flowRoot>    <flowRoot
       xml:space="preserve"
       id="flowRoot3365"
       style="fill:black;stroke:none;stroke-opacity:1;stroke-width:1px;stroke-linejoin:miter;stroke-linecap:butt;fill-opacity:1;font-family:sans-serif;font-style:normal;font-weight:normal;font-size:40px;line-height:125%;letter-spacing:0px;word-spacing:0px"><flowRegion
         id="flowRegion3367"><rect
           id="rect3369"
           width="382.85715"
           height="85.714287"
           x="134.28572"
           y="30.620953" /></flowRegion><flowPara
         id="flowPara3371"></flowPara></flowRoot>    <g
       id="g3391"
       style="fill:#f44336;fill-opacity:1">
      <text
         sodipodi:linespacing="89.999998%"
         id="text3373"
         y="474.87909"
         x="270.22772"
         style="font-style:normal;font-weight:normal;font-size:132.56716919px;line-height:89.99999762%;font-family:sans-serif;letter-spacing:0px;word-spacing:0px;fill:#f44336;fill-opacity:1;stroke:none;stroke-width:1px;stroke-linecap:butt;stroke-linejoin:miter;stroke-opacity:1"
         xml:space="preserve"><tspan
           id="tspan3381"
           style="font-style:normal;font-variant:normal;font-weight:normal;font-stretch:normal;line-height:89.99999762%;font-family:'El Messiri';-inkscape-font-specification:'El Messiri';fill:#f44336;fill-opacity:1"
           y="474.87909"
           x="270.22772"
           sodipodi:role="line">Postal</tspan><tspan
           id="tspan3385"
           style="font-style:normal;font-variant:normal;font-weight:normal;font-stretch:normal;line-height:89.99999762%;font-family:'El Messiri';-inkscape-font-specification:'El Messiri';fill:#f44336;fill-opacity:1"
           y="594.18951"
           x="270.22772"
           sodipodi:role="line">Dhow</tspan></text>
    </g>
    <text
       xml:space="preserve"
       style="font-style:normal;font-weight:normal;font-size:40px;line-height:125%;font-family:sans-serif;letter-spacing:0px;word-spacing:0px;fill:#000000;fill-opacity:1;stroke:none;stroke-width:1px;stroke-linecap:butt;stroke-linejoin:miter;stroke-opacity:1"
       x="615.32678"
       y="491.70578"
       id="text3387"
       sodipodi:linespacing="125%"><tspan
         sodipodi:role="line"
         id="tspan3389"
         x="615.32678"
         y="491.70578"></tspan></text>
  </g>
</svg>
