<?xml version="1.0" encoding="UTF-8" standalone="no"?>
<!-- Created with Inkscape (http://www.inkscape.org/) -->

<svg
   xmlns:dc="http://purl.org/dc/elements/1.1/"
   xmlns:cc="http://creativecommons.org/ns#"
   xmlns:rdf="http://www.w3.org/1999/02/22-rdf-syntax-ns#"
   xmlns:svg="http://www.w3.org/2000/svg"
   xmlns="http://www.w3.org/2000/svg"
   xmlns:sodipodi="http://sodipodi.sourceforge.net/DTD/sodipodi-0.dtd"
   xmlns:inkscape="http://www.inkscape.org/namespaces/inkscape"
   width="156.54349mm"
   height="61.457787mm"
   viewBox="0 0 554.68165 217.76381"
   id="svg2"
   version="1.1"
   inkscape:version="0.91 r13725"
   sodipodi:docname="logo.svg">
  <defs
     id="defs4" />
  <sodipodi:namedview
     id="base"
     pagecolor="#ffffff"
     bordercolor="#666666"
     borderopacity="1.0"
     inkscape:pageopacity="0.0"
     inkscape:pageshadow="2"
     inkscape:zoom="0.98994949"
     inkscape:cx="209.10632"
     inkscape:cy="123.14688"
     inkscape:document-units="px"
     inkscape:current-layer="text3373"
     showgrid="false"
     inkscape:window-width="1366"
     inkscape:window-height="707"
     inkscape:window-x="0"
     inkscape:window-y="0"
     inkscape:window-maximized="1"
     fit-margin-top="0"
     fit-margin-left="0"
     fit-margin-right="0"
     fit-margin-bottom="0"
     showguides="true" />
  <metadata
     id="metadata7">
    <rdf:RDF>
      <cc:Work
         rdf:about="">
        <dc:format>image/svg+xml</dc:format>
        <dc:type
           rdf:resource="http://purl.org/dc/dcmitype/StillImage" />
        <dc:title></dc:title>
      </cc:Work>
    </rdf:RDF>
  </metadata>
  <g
     inkscape:label="Layer 1"
     inkscape:groupmode="layer"
     id="layer1"
     transform="translate(-112.27083,-382.02828)">
    <path
       style="fill:#f44336;fill-opacity:1;stroke:#f44336;stroke-width:0.32820949;stroke-opacity:1"
       d="m 182.42123,595.67309 c -4.30789,-2.19305 -8.30425,-5.28198 -11.0213,-8.51871 -2.08923,-2.48883 -4.45851,-7.02117 -5.31872,-10.17449 -0.57523,-2.10868 -1.04324,-9.71844 -0.68538,-11.14426 l 0.21616,-0.86126 1.38539,0.85152 c 3.15706,1.94044 9.49374,4.0975 12.03706,4.0975 l 0.88532,0 0.43185,-4.60321 c 0.23753,-2.53177 0.35172,-4.68337 0.25375,-4.78133 -0.098,-0.098 -2.00196,0.0165 -4.2311,0.25444 -5.41983,0.57842 -25.61012,0.58726 -29.65332,0.013 -7.10173,-1.0087 -8.00788,-1.29479 -10.4741,-3.30681 -9.38453,-7.65627 -16.18795,-16.66345 -20.18324,-26.72099 -1.29695,-3.2649 -2.89304,-9.91926 -3.30184,-13.76596 -2.23197,-21.00209 6.97692,-45.27609 27.47819,-72.43068 12.32222,-16.32118 29.49205,-34.24377 48.0999,-50.20872 5.69521,-4.88631 14.70299,-12.17311 15.05757,-12.18076 0.12345,-0.003 -0.28311,1.5023 -0.90345,3.34435 -1.12334,3.33568 -1.14599,3.52455 -5.60795,46.77174 l -4.48006,43.42253 1.06846,4.51101 c 5.57406,23.53357 18.43751,42.61867 37.10405,55.05014 4.9187,3.27573 10.02473,6.01865 14.70921,7.90165 l 3.4513,1.38732 -4.16313,1.35441 c -18.51202,6.0226 -39.7978,11.11928 -55.67998,13.33202 -2.07593,0.28922 -4.08736,0.58765 -4.46985,0.66316 -0.6302,0.12441 -0.73165,0.48413 -1.0814,3.8342 -0.21227,2.0333 -0.4734,4.34766 -0.58029,5.14304 l -0.19434,1.44614 3.44636,-0.22282 c 9.18914,-0.59409 18.70433,-3.40079 29.02007,-8.56005 l 5.29926,-2.65034 -0.82923,1.64479 c -1.22406,2.42793 -4.82918,8.77034 -6.90483,12.14749 -9.45212,15.37895 -18.19993,24.12976 -24.67207,24.6806 -1.70885,0.14546 -2.05506,0.0373 -5.50832,-1.72067 z M 193.92739,433.6779 c 1.58281,-15.36499 2.82307,-27.99111 2.75615,-28.05803 -0.19459,-0.19458 -2.76191,11.72815 -3.64713,16.93745 -1.57704,9.28029 -2.40125,17.64821 -2.53774,25.76444 -0.12111,7.2012 0.0139,13.29248 0.29457,13.29248 0.14098,0 1.55135,-12.57135 3.13415,-27.93634 z"
       id="path3401"
       inkscape:connector-curvature="0"
       inkscape:export-filename="/home/dsoni/dhow.svg"
       inkscape:export-xdpi="90"
       inkscape:export-ydpi="90" />
    <text
       xml:space="preserve"
       style="font-style:normal;font-weight:normal;font-size:40px;line-height:125%;font-family:sans-serif;letter-spacing:0px;word-spacing:0px;fill:#4db6ac;fill-opacity:1;stroke:#4db6ac;stroke-width:1px;stroke-linecap:butt;stroke-linejoin:miter;stroke-opacity:1;"
       x="404.06104"
       y="519.00165"
       id="text3346"
       sodipodi:linespacing="125%"><tspan
         sodipodi:role="line"
         id="tspan3348"
         x="404.06104"
         y="519.00165" /></text>
    <text
       xml:space="preserve"
       style="font-style:normal;font-weight:normal;font-size:40px;line-height:125%;font-family:sans-serif;letter-spacing:0px;word-spacing:0px;fill:#4db6ac;fill-opacity:1;stroke:#4db6ac;stroke-width:1px;stroke-linecap:butt;stroke-linejoin:miter;stroke-opacity:1;"
       x="450.52802"
       y="201.81377"
       id="text3350"
       sodipodi:linespacing="125%"><tspan
         sodipodi:role="line"
         id="tspan3352"
         x="450.52802"
         y="201.81377" /></text>
    <flowRoot
       xml:space="preserve"
       id="flowRoot3357"
       style="font-style:normal;font-weight:normal;font-size:40px;line-height:125%;font-family:sans-serif;letter-spacing:0px;word-spacing:0px;fill:#000000;fill-opacity:1;stroke:none;stroke-width:1px;stroke-linecap:butt;stroke-linejoin:miter;stroke-opacity:1"
       transform="translate(112.27083,382.02828)"><flowRegion
         id="flowRegion3359"><rect
           id="rect3361"
           width="388.57144"
           height="81.428574"
           x="140"
           y="9.1923819" /></flowRegion><flowPara
         id="flowPara3363"
         style="font-style:normal;font-variant:normal;font-weight:normal;font-stretch:normal;font-family:'El Messiri';-inkscape-font-specification:'El Messiri'" /></flowRoot>    <flowRoot
       xml:space="preserve"
       id="flowRoot3365"
       style="fill:black;stroke:none;stroke-opacity:1;stroke-width:1px;stroke-linejoin:miter;stroke-linecap:butt;fill-opacity:1;font-family:sans-serif;font-style:normal;font-weight:normal;font-size:40px;line-height:125%;letter-spacing:0px;word-spacing:0px"><flowRegion
         id="flowRegion3367"><rect
           id="rect3369"
           width="382.85715"
           height="85.714287"
           x="134.28572"
           y="30.620953" /></flowRegion><flowPara
         id="flowPara3371" /></flowRoot>    <g
       id="g3391"
       style="fill:#f44336;fill-opacity:1">
      <g
         id="g4160">
        <g
           style="font-style:normal;font-weight:normal;font-size:132.56716919px;line-height:89.99999762%;font-family:sans-serif;letter-spacing:0px;word-spacing:0px;fill:#f44336;fill-opacity:1;stroke:none;stroke-width:1px;stroke-linecap:butt;stroke-linejoin:miter;stroke-opacity:1"
           id="text3373">
          <path
             d="m 284.27984,403.29282 q 0,-6.76093 -1.85594,-9.94254 -1.85594,-3.31418 -7.42376,-3.31418 l -2.65134,0 0,-2.65134 34.46746,0 q 12.72645,0 22.93412,5.43525 10.20767,5.43526 10.20767,21.07818 0,10.34024 -5.30268,15.90806 -5.30269,5.56782 -11.93105,7.42376 -6.49579,1.85594 -11.93104,1.85594 l -14.58239,0 0,35.79314 -11.93105,0 0,-71.58627 z m 21.87359,31.15328 q 4.24214,0 9.01456,-2.12107 4.77242,-2.25364 8.0866,-7.02606 3.44675,-4.77242 3.44675,-12.06361 0,-7.2912 -3.44675,-12.06362 -3.31418,-4.77241 -8.0866,-6.89349 -4.77242,-2.25364 -9.01456,-2.25364 -4.63986,0 -9.94254,1.32567 l 0,41.09582 9.94254,0 z"
             style="font-style:normal;font-variant:normal;font-weight:normal;font-stretch:normal;line-height:89.99999762%;font-family:'El Messiri';-inkscape-font-specification:'El Messiri';fill:#f44336;fill-opacity:1"
             id="path4166" />
          <path
             d="m 377.07893,476.20476 q -9.01457,0 -15.64292,-4.24215 -6.62836,-4.37471 -10.07511,-11.79848 -3.44675,-7.42376 -3.44675,-16.43833 0,-9.01456 3.44675,-16.43832 3.44675,-7.42377 10.07511,-11.66592 6.62835,-4.37471 15.64292,-4.37471 9.01457,0 15.64293,4.37471 6.62836,4.24215 10.0751,11.66592 3.44675,7.42376 3.44675,16.43832 0,9.01457 -3.44675,16.43833 -3.44674,7.42377 -10.0751,11.79848 -6.62836,4.24215 -15.64293,4.24215 z m 0,-5.30269 q 4.90499,0 8.61687,-3.57931 3.84445,-3.57931 5.83295,-9.80997 2.12108,-6.23066 2.12108,-13.78699 0,-7.55632 -2.12108,-13.78698 -1.9885,-6.23066 -5.83295,-9.80997 -3.71188,-3.57932 -8.61687,-3.57932 -4.90498,0 -8.74943,3.57932 -3.71188,3.57931 -5.83296,9.80997 -1.98851,6.23066 -1.98851,13.78698 0,7.55633 1.98851,13.78699 2.12108,6.23066 5.83296,9.80997 3.84445,3.57931 8.74943,3.57931 z"
             style="font-style:normal;font-variant:normal;font-weight:normal;font-stretch:normal;line-height:89.99999762%;font-family:'El Messiri';-inkscape-font-specification:'El Messiri';fill:#f44336;fill-opacity:1"
             id="path4168" />
          <path
             d="m 442.47391,476.20476 q -15.24522,0 -20.54791,-5.30269 -2.25364,-2.25364 -2.78391,-5.03755 -0.53027,-2.91648 -0.53027,-8.882 l 2.65134,0 q 1.19311,6.62836 5.70039,10.34024 4.63985,3.57931 12.85902,3.57931 7.29119,0 10.8705,-2.51877 3.71188,-2.51878 3.71188,-6.76093 0,-3.84445 -2.91647,-6.62836 -2.78391,-2.78391 -9.01457,-5.30268 l -7.95403,-3.31418 q -7.95403,-3.18161 -11.93105,-7.42376 -3.97701,-4.24215 -3.97701,-10.47281 0,-8.0866 6.09809,-12.59388 6.09809,-4.63985 15.77549,-4.63985 14.58239,0 19.88508,5.30268 2.25364,2.25365 2.78391,5.03756 0.53027,2.78391 0.53027,8.882 l -2.65135,0 q -1.06053,-6.62836 -5.56782,-10.20767 -4.50728,-3.71189 -12.32874,-3.71189 -6.23066,0 -9.80998,2.65135 -3.44674,2.51877 -3.44674,6.62836 0,6.89349 10.60537,11.26821 l 7.95403,3.31418 q 9.01457,3.71188 13.12415,7.95403 4.10958,4.10958 4.10958,10.60537 0,8.0866 -6.49579,12.72645 -6.49579,4.50728 -16.70346,4.50728 z"
             style="font-style:normal;font-variant:normal;font-weight:normal;font-stretch:normal;line-height:89.99999762%;font-family:'El Messiri';-inkscape-font-specification:'El Messiri';fill:#f44336;fill-opacity:1"
             id="path4170" />
          <path
             d="m 499.12151,476.20476 q -7.42376,0 -11.66591,-4.24215 -4.24215,-4.24215 -4.24215,-12.99158 l 0,-41.09582 -9.2797,0 0,-5.30269 9.2797,0 0,-11.93105 6.62836,-7.95403 5.30269,0 0,19.88508 15.90806,0 0,5.30269 -15.90806,0 0,41.09582 q 0,11.93104 9.2797,11.93104 3.18161,0 5.30269,-0.66283 2.25364,-0.66284 4.63985,-1.98851 l 1.32567,2.65134 q -3.04904,2.25365 -6.76093,3.84445 -3.71188,1.45824 -9.80997,1.45824 z"
             style="font-style:normal;font-variant:normal;font-weight:normal;font-stretch:normal;line-height:89.99999762%;font-family:'El Messiri';-inkscape-font-specification:'El Messiri';fill:#f44336;fill-opacity:1"
             id="path4172" />
          <path
             d="m 540.3354,476.20476 q -4.24215,0 -8.61687,-1.72337 -4.37471,-1.85594 -7.55633,-5.96552 -3.04904,-4.10959 -3.04904,-10.87051 0,-10.07511 9.2797,-14.31726 9.41227,-4.24215 24.52493,-4.24215 l 3.97701,0 q 0,-12.99158 -3.57931,-17.764 -3.57932,-4.77242 -10.34024,-4.77242 -5.96552,0 -9.54484,2.51878 -3.57931,2.51878 -5.03755,8.74943 l -5.96552,0 q 0,-4.50728 0.53027,-7.02606 0.53027,-2.65134 2.78391,-4.90498 2.38621,-2.38621 7.82146,-3.44675 5.56782,-1.1931 12.06361,-1.1931 10.73794,0 16.9686,5.83295 6.23066,5.70039 6.23066,22.00615 l 0,35.79314 -6.62836,0 -4.63985,-5.96552 -0.66284,0 q -2.38621,3.04904 -7.02606,5.17012 -4.63985,2.12107 -11.53334,2.12107 z m 5.96552,-5.96552 q 4.37472,0 7.29119,-2.12108 2.91648,-2.12107 5.30269,-5.83295 l 0,-17.89657 -3.97701,0 q -9.80997,0 -15.51036,3.71188 -5.70039,3.57931 -5.70039,9.54484 0,6.09809 3.57931,9.41227 3.71188,3.18161 9.01457,3.18161 z"
             style="font-style:normal;font-variant:normal;font-weight:normal;font-stretch:normal;line-height:89.99999762%;font-family:'El Messiri';-inkscape-font-specification:'El Messiri';fill:#f44336;fill-opacity:1"
             id="path4174" />
          <path
             d="m 589.71253,403.29282 q 0,-6.76093 -1.85594,-9.94254 -1.85595,-3.31418 -7.42377,-3.31418 l -2.65134,0 0,-2.65134 11.93105,0 q 4.90498,0 7.29119,1.32567 2.51878,1.1931 3.57931,4.50728 1.06054,3.31418 1.06054,10.07511 l 0,71.58627 -11.93104,0 0,-71.58627 z"
             style="font-style:normal;font-variant:normal;font-weight:normal;font-stretch:normal;line-height:89.99999762%;font-family:'El Messiri';-inkscape-font-specification:'El Messiri';fill:#f44336;fill-opacity:1"
             id="path4176" />
          <path
             d="m 284.27984,522.60327 q 0,-6.76093 -1.85594,-9.94254 -1.85594,-3.31418 -7.42376,-3.31418 l -2.65134,0 0,-2.65134 34.7326,0 q 25.71803,0 38.84218,11.40077 13.25671,11.40078 13.25671,31.81612 0,13.12415 -5.56782,23.19926 -5.56782,9.94254 -16.57089,15.51036 -10.87051,5.56782 -26.51344,5.56782 l -26.2483,0 0,-71.58627 z m 25.8506,66.94642 q 9.80997,0 17.63143,-4.77242 7.95403,-4.90499 12.46132,-13.65442 4.50728,-8.882 4.50728,-20.68048 0,-11.53334 -4.50728,-20.41534 -4.37472,-8.882 -12.32875,-13.78699 -7.95403,-4.90498 -18.02913,-4.90498 -6.36323,0 -13.25672,2.12107 l 0,74.37018 q 7.42376,1.72338 13.52185,1.72338 z"
             style="font-style:normal;font-variant:normal;font-weight:normal;font-stretch:normal;line-height:89.99999762%;font-family:'El Messiri';-inkscape-font-specification:'El Messiri';fill:#f44336;fill-opacity:1"
             id="path4178" />
          <path
             d="m 374.53737,522.60327 q 0,-6.76093 -1.85594,-9.94254 -1.85594,-3.31418 -7.42376,-3.31418 l -2.65135,0 0,-2.65134 11.93105,0 q 4.90498,0 7.29119,1.32567 2.51878,1.1931 3.57931,4.50728 1.06054,3.31418 1.06054,10.07511 l 0,14.58239 q 2.78391,-2.78391 7.15863,-4.63986 4.50728,-1.9885 10.0751,-1.9885 9.94254,0 16.1732,5.30268 6.36322,5.30269 6.36322,18.55941 l 0,39.77015 -11.93104,0 0,-39.77015 q 0,-9.2797 -4.24215,-13.52185 -4.10958,-4.37472 -10.34024,-4.37472 -7.02606,0 -13.25672,7.02606 l 0,50.64066 -11.93104,0 0,-71.58627 z"
             style="font-style:normal;font-variant:normal;font-weight:normal;font-stretch:normal;line-height:89.99999762%;font-family:'El Messiri';-inkscape-font-specification:'El Messiri';fill:#f44336;fill-opacity:1"
             id="path4180" />
          <path
             d="m 470.29021,595.51521 q -9.01457,0 -15.64292,-4.24215 -6.62836,-4.37472 -10.07511,-11.79848 -3.44675,-7.42376 -3.44675,-16.43833 0,-9.01456 3.44675,-16.43833 3.44675,-7.42376 10.07511,-11.66591 6.62835,-4.37471 15.64292,-4.37471 9.01457,0 15.64293,4.37471 6.62836,4.24215 10.0751,11.66591 3.44675,7.42377 3.44675,16.43833 0,9.01457 -3.44675,16.43833 -3.44674,7.42376 -10.0751,11.79848 -6.62836,4.24215 -15.64293,4.24215 z m 0,-5.30269 q 4.90499,0 8.61687,-3.57931 3.84445,-3.57931 5.83295,-9.80997 2.12108,-6.23066 2.12108,-13.78699 0,-7.55632 -2.12108,-13.78698 -1.9885,-6.23066 -5.83295,-9.80997 -3.71188,-3.57932 -8.61687,-3.57932 -4.90498,0 -8.74943,3.57932 -3.71188,3.57931 -5.83296,9.80997 -1.9885,6.23066 -1.9885,13.78698 0,7.55633 1.9885,13.78699 2.12108,6.23066 5.83296,9.80997 3.84445,3.57931 8.74943,3.57931 z"
             style="font-style:normal;font-variant:normal;font-weight:normal;font-stretch:normal;line-height:89.99999762%;font-family:'El Messiri';-inkscape-font-specification:'El Messiri';fill:#f44336;fill-opacity:1"
             id="path4182" />
          <path
             d="m 516.77158,547.12819 q -3.04905,-7.42376 -6.09809,-10.34024 -2.91648,-3.04904 -7.82146,-3.31418 l 0,-2.65134 q 0.66283,0 1.9885,-0.13257 1.32568,-0.13256 2.65135,-0.13256 7.15862,0 12.59388,3.71188 5.56782,3.57931 9.2797,12.85901 l 11.26821,27.83911 11.26821,-28.50194 q -3.18161,-7.02606 -6.09809,-9.80997 -2.78391,-2.91648 -7.15863,-3.18162 l 0,-2.65134 q 0.66284,0 1.98851,-0.13257 1.32567,-0.13256 2.65134,-0.13256 7.15863,0 12.59388,3.71188 5.56782,3.57931 9.27971,12.85901 l 11.26821,27.83911 17.23373,-43.08433 6.62836,0 -25.8506,63.63224 -2.65135,0 -16.57089,-41.09582 -16.5709,41.09582 -2.65134,0 -19.22224,-48.38702 z"
             style="font-style:normal;font-variant:normal;font-weight:normal;font-stretch:normal;line-height:89.99999762%;font-family:'El Messiri';-inkscape-font-specification:'El Messiri';fill:#f44336;fill-opacity:1"
             id="path4184" />
        </g>
      </g>
    </g>
    <text
       xml:space="preserve"
       style="font-style:normal;font-weight:normal;font-size:40px;line-height:125%;font-family:sans-serif;letter-spacing:0px;word-spacing:0px;fill:#000000;fill-opacity:1;stroke:none;stroke-width:1px;stroke-linecap:butt;stroke-linejoin:miter;stroke-opacity:1"
       x="615.32678"
       y="491.70578"
       id="text3387"
       sodipodi:linespacing="125%"><tspan
         sodipodi:role="line"
         id="tspan3389"
         x="615.32678"
         y="491.70578" /></text>
  </g>
</svg>
